<?xml version="1.0" standalone="no"?>
<!DOCTYPE svg PUBLIC "-//W3C//DTD SVG 20010904//EN"
 "http://www.w3.org/TR/2001/REC-SVG-20010904/DTD/svg10.dtd">
<svg version="1.0" xmlns="http://www.w3.org/2000/svg"
 width="1258.000000pt" height="1242.000000pt" viewBox="0 0 1258.000000 1242.000000"
 preserveAspectRatio="xMidYMid meet">
<metadata>
Created by potrace 1.16, written by Peter Selinger 2001-2019
</metadata>
<g transform="translate(0.000000,1242.000000) scale(0.100000,-0.100000)"
fill="#000000" stroke="none">
<path d="M3441 9956 c-48 -17 -108 -71 -132 -118 -32 -63 -23 -126 36 -244 27
-52 58 -102 71 -110 20 -13 27 -12 78 12 111 52 159 140 173 311 7 95 -1 113
-62 142 -50 23 -112 26 -164 7z"/>
<path d="M2418 9630 c-42 -13 -82 -45 -103 -84 -18 -34 -18 -38 1 -208 24
-217 28 -703 5 -755 -26 -64 -153 -114 -481 -191 -403 -95 -676 -143 -732
-129 -68 17 -72 45 -63 462 8 349 2 422 -36 500 -28 58 -63 80 -126 80 -48 0
-56 -4 -90 -38 l-38 -37 0 -103 c0 -56 7 -350 14 -654 15 -550 13 -663 -16
-1243 -3 -49 0 -101 7 -123 25 -85 155 -180 215 -157 63 24 95 205 76 437 -12
149 -13 512 -2 553 4 14 19 31 34 38 31 15 310 81 477 112 139 27 290 58 510
105 178 39 220 39 245 1 29 -44 37 -137 44 -516 7 -432 6 -427 81 -469 77 -43
148 -14 205 84 33 57 37 89 26 190 -16 141 -49 560 -62 780 -6 120 -10 412 -7
730 3 518 3 531 -17 565 -33 56 -109 88 -167 70z"/>
<path d="M3288 8974 c-59 -31 -62 -50 -69 -384 -22 -968 -3 -1170 112 -1248
67 -46 169 -12 214 72 21 39 23 26 -28 198 -51 171 -77 478 -58 693 6 72 23
226 38 344 24 193 25 217 12 254 -10 31 -24 47 -54 64 -47 27 -125 30 -167 7z"/>
<path d="M11653 5265 c-23 -19 -52 -56 -64 -82 -26 -54 -29 -121 -15 -353 6
-96 4 -209 -8 -391 -23 -369 -18 -621 14 -653 15 -15 189 -21 203 -7 9 9 11
76 9 244 -3 191 2 298 28 607 16 206 33 427 37 491 6 113 5 116 -18 138 -57
54 -128 56 -186 6z"/>
<path d="M3625 4418 c-28 -16 -42 -35 -73 -98 l-27 -55 -1 -760 c0 -572 -5
-860 -19 -1163 -20 -442 -18 -464 33 -501 16 -11 49 -25 75 -31 41 -11 51 -10
92 10 68 33 127 130 230 380 264 640 425 931 536 972 8 3 30 0 47 -8 50 -21
84 -107 157 -396 85 -339 116 -422 192 -515 96 -119 240 -154 324 -79 70 62
64 102 -36 221 -123 146 -181 276 -261 583 -73 279 -122 409 -182 479 -94 108
-251 75 -403 -85 -160 -167 -320 -457 -484 -874 -31 -81 -61 -145 -66 -142
-31 19 8 674 71 1214 27 229 36 507 21 629 -17 134 -52 189 -140 219 -42 15
-60 15 -86 0z"/>
<path d="M9295 4376 c-191 -46 -355 -188 -501 -434 -238 -398 -279 -901 -99
-1188 41 -64 103 -117 185 -157 64 -32 66 -32 215 -32 141 0 155 2 235 31 201
71 399 234 536 441 72 108 97 231 59 289 -30 46 -69 27 -142 -69 -172 -227
-338 -355 -525 -407 -83 -23 -139 -25 -206 -8 -91 23 -172 136 -172 241 0 48
18 67 210 217 235 184 444 411 511 555 46 97 62 178 57 275 -3 50 -12 99 -21
117 -64 122 -184 168 -342 129z m75 -246 c41 -22 44 -115 7 -202 -44 -103
-208 -290 -392 -447 -135 -115 -125 -109 -118 -64 30 209 109 404 226 556 102
132 209 193 277 157z"/>
<path d="M8096 4130 c-98 -18 -180 -65 -275 -161 -94 -94 -216 -284 -306 -474
-32 -67 -143 -384 -157 -450 -7 -29 -17 47 -28 210 -6 90 -6 193 1 290 26 391
26 375 -16 417 -76 77 -227 5 -254 -120 -16 -75 4 -560 34 -836 50 -466 97
-647 178 -696 41 -25 67 -25 128 1 73 32 81 52 91 249 8 162 34 341 64 450 71
252 256 600 392 737 98 101 167 114 263 52 65 -42 130 -49 177 -20 80 51 68
185 -24 273 -71 69 -164 96 -268 78z"/>
<path d="M2950 3985 c-142 -25 -201 -39 -525 -128 -413 -115 -578 -151 -970
-217 -251 -43 -324 -62 -352 -95 -28 -32 -30 -86 -5 -135 40 -82 175 -75 618
29 115 28 240 55 278 62 108 18 106 22 106 -270 0 -752 55 -1334 141 -1502 43
-84 153 -126 212 -79 34 27 52 62 61 116 6 32 0 63 -28 149 -20 60 -43 141
-50 179 -17 82 -41 335 -56 581 -13 220 -25 834 -17 867 13 50 104 86 362 142
187 41 340 64 515 76 117 9 127 11 148 35 14 17 22 39 22 62 0 48 -38 121 -72
139 -42 22 -228 17 -388 -11z"/>
<path d="M6085 3921 c-110 -31 -203 -88 -295 -181 -177 -176 -317 -449 -377
-730 -25 -120 -25 -375 1 -485 63 -275 223 -415 473 -415 119 0 210 19 311 62
118 51 187 101 312 227 122 122 179 199 217 291 40 96 26 202 -27 207 -31 3
-51 -14 -115 -97 -139 -181 -300 -317 -442 -374 -73 -30 -193 -50 -245 -42
-116 19 -207 121 -211 237 -2 56 5 66 123 157 234 182 452 395 540 530 28 42
64 113 82 157 27 70 32 92 32 180 1 90 -2 106 -27 157 -28 58 -72 98 -132 124
-46 19 -146 17 -220 -5z m99 -247 c38 -38 33 -125 -12 -217 -57 -115 -227
-299 -452 -487 l-52 -44 6 45 c14 92 50 227 82 302 73 176 201 347 295 394 51
26 111 30 133 7z"/>
<path d="M11645 3388 c-29 -16 -42 -35 -76 -103 -74 -151 7 -304 135 -255 40
15 107 81 127 125 26 56 26 175 1 198 -43 39 -146 58 -187 35z"/>
</g>
</svg>
